<?xml version="1.0" encoding="UTF-8"?>
<svg width="512pt" height="512pt" version="1.1" viewBox="0 0 512 512" xmlns="http://www.w3.org/2000/svg">
 <g>
  <path d="m240.64 209.2c0.019531 4.0195-2.375 7.6562-6.0703 9.2344-3.6992 1.5742-7.9805 0.77734-10.867-2.0195-2.8828-2.8008-3.8086-7.0547-2.3477-10.797 1.4609-3.7461 5.0273-6.2461 9.043-6.3516 2.6875-0.082031 5.293 0.92578 7.2227 2.8008 1.9297 1.8711 3.0195 4.4453 3.0195 7.1328z"/>
  <path d="m142.13 339.15c9.1406 8.207 20.992 12.746 33.277 12.746s24.141-4.5391 33.281-12.746c5.8086-4.8164 13.113-7.4531 20.66-7.4531 7.543 0 14.852 2.6367 20.656 7.4531 9.1289 8.1367 20.926 12.633 33.152 12.633 12.227 0 24.027-4.4961 33.152-12.633 5.8086-4.8164 13.117-7.4531 20.66-7.4531 7.543 0 14.852 2.6367 20.66 7.4531l12.492-12.594c-7.9414-7.4922-18.285-11.918-29.184-12.492 7.4648-20.363 6.75-42.824-1.9961-62.672l-3.5859-8.0898-16.23 7.168c-18.121 7.918-39.035 5.9844-55.398-5.1172 11.781-10.883 17.492-26.84 15.289-42.727-2.2031-15.883-12.043-29.688-26.34-36.949-14.297-7.2656-31.242-7.0742-45.371 0.51172-14.133 7.5859-23.652 21.605-25.496 37.539-2.9141 0.91406-6.0156 1.0195-8.9844 0.30859-2.9648-0.71484-5.6836-2.2188-7.8633-4.3555l-12.543 12.543c6.4375 6.5234 15.207 10.211 24.371 10.242 2.0938-0.011719 4.1836-0.19922 6.2461-0.5625 1.7344 6.5625 4.8008 12.695 9.0117 18.02-15.93 24.82-17.719 56.168-4.7109 82.637 1.2812 2.457 2.6094 4.8633 4.0977 7.2188-10.957 6.3477-28.109 5.1211-36.812-3.3789zm88.266-161.18c8.3008 0 16.262 3.2969 22.129 9.168 5.8672 5.8711 9.1602 13.832 9.1562 22.133-0.003906 8.2969-3.3086 16.254-9.1797 22.121-5.875 5.8633-13.84 9.1523-22.137 9.1445-8.3008-0.011718-16.258-3.3164-22.117-9.1953-5.8633-5.875-9.1484-13.84-9.1328-22.141 0.011718-8.2891 3.3164-16.23 9.1797-22.086 5.8672-5.8555 13.816-9.1445 22.102-9.1445zm89.754 138.6c-6.25 2.0742-11.93 5.582-16.586 10.238-5.8086 4.8164-13.117 7.4531-20.66 7.4531-7.5469 0-14.852-2.6367-20.66-7.4531-14.133-14.027-38.707-16.383-56.32-7.168-0.92188-1.4688-1.793-3.0039-2.6094-4.6094v0.003906c-9.9453-20.164-9.043-43.984 2.4062-63.336 7.5 4.3242 16.02 6.5703 24.676 6.5039 5.7305 0.015625 11.418-0.98828 16.797-2.9727 10.672 9.0156 23.637 14.883 37.453 16.953 13.816 2.0703 27.934 0.26172 40.777-5.2266 4.8047 16.59 2.9102 34.402-5.2734 49.613z"/>
 </g>
</svg>
